<?xml version="1.0" encoding="utf-8"?>
<!-- Generator: Adobe Illustrator 24.0.0, SVG Export Plug-In . SVG Version: 6.00 Build 0)  -->
<svg version="1.1" id="Finished_Version" xmlns="http://www.w3.org/2000/svg" xmlns:xlink="http://www.w3.org/1999/xlink" x="0px"
	 y="0px" viewBox="0 0 283.46 283.46" style="enable-background:new 0 0 283.46 283.46;" xml:space="preserve">
<g id="Left_1_">
	<path d="M93.9,46.06L93.9,46.06c-26.42,0-47.83,21.42-47.83,47.83v95.67c0,26.42,21.42,47.83,47.83,47.83h0
		c26.42,0,47.83-21.42,47.83-47.83V93.9C141.73,67.48,120.32,46.06,93.9,46.06z M131.42,188.31c0,20.72-16.8,37.52-37.52,37.52h0
		c-20.72,0-37.52-16.8-37.52-37.52V95.16c0-20.72,16.8-37.52,37.52-37.52h0c20.72,0,37.52,16.8,37.52,37.52V188.31z"/>
</g>
<g id="Right_1_">
	<path d="M162.68,48.37c-7.32-1.63-13.05,6.18-9.42,12.73c5.4,9.73,8.47,20.91,8.47,32.8v95.67c0,12.66-3.49,24.51-9.55,34.66
		c-3.47,5.81,0.65,13.17,7.41,13.17h29.9c26.46,0,47.91-21.45,47.91-47.91v-47.76C237.4,96.09,205.44,57.92,162.68,48.37z"/>
</g>
</svg>
