<?xml version="1.0" standalone="no"?>
<!DOCTYPE svg PUBLIC "-//W3C//DTD SVG 20010904//EN"
 "http://www.w3.org/TR/2001/REC-SVG-20010904/DTD/svg10.dtd">
<svg version="1.0" xmlns="http://www.w3.org/2000/svg"
 width="4300.000000pt" height="4300.000000pt" viewBox="0 0 4300.000000 4300.000000"
 preserveAspectRatio="xMidYMid meet">
<metadata>
Created by potrace 1.11, written by Peter Selinger 2001-2013
</metadata>
<g transform="translate(0.000000,4300.000000) scale(0.100000,-0.100000)"
fill="#000000" stroke="none">
<path d="M14028 35755 c-1 -1 -52 -6 -113 -10 -60 -4 -126 -8 -145 -10 -19 -2
-70 -6 -112 -10 -42 -3 -85 -7 -95 -9 -10 -2 -48 -7 -85 -10 -37 -4 -77 -9
-90 -11 -13 -2 -68 -11 -123 -20 -97 -15 -120 -19 -187 -31 -32 -5 -347 -71
-378 -79 -106 -26 -309 -81 -360 -97 -147 -45 -286 -90 -305 -98 -22 -10 -139
-52 -222 -81 -164 -56 -638 -276 -873 -404 -239 -131 -631 -381 -781 -499 -15
-12 -39 -30 -55 -41 -71 -51 -378 -297 -394 -315 -3 -4 -43 -40 -90 -81 -110
-95 -443 -427 -551 -549 -46 -52 -92 -103 -102 -115 -10 -11 -53 -63 -95 -115
-42 -52 -83 -101 -90 -109 -62 -65 -394 -538 -488 -694 -16 -27 -36 -61 -45
-75 -136 -227 -297 -539 -399 -772 -39 -91 -77 -178 -85 -195 -8 -16 -41 -102
-73 -190 -154 -414 -258 -791 -337 -1220 -26 -146 -43 -248 -50 -315 -3 -25
-7 -61 -10 -80 -8 -60 -15 -123 -20 -180 -3 -30 -8 -75 -10 -100 -3 -25 -9
-101 -13 -170 -10 -169 -9 -14970 1 -15135 4 -71 10 -146 12 -165 2 -19 6 -63
9 -96 3 -34 8 -77 10 -95 3 -19 7 -56 10 -84 11 -99 20 -157 62 -410 11 -66
46 -228 79 -365 19 -80 38 -156 41 -170 26 -116 137 -463 214 -670 61 -161 67
-176 134 -335 116 -271 372 -757 497 -943 16 -24 29 -45 29 -47 0 -8 195 -292
278 -405 86 -116 275 -356 296 -375 6 -5 24 -26 40 -45 117 -142 444 -480 604
-622 53 -48 106 -95 117 -105 147 -134 443 -362 680 -524 97 -67 340 -221 392
-249 21 -11 45 -25 53 -30 121 -78 463 -250 735 -370 28 -12 64 -27 80 -35 88
-38 546 -206 600 -219 47 -12 104 -28 120 -35 19 -9 195 -58 232 -66 10 -2 74
-17 143 -33 107 -26 187 -42 205 -43 2 0 19 -4 36 -9 18 -5 51 -12 73 -15 23
-3 48 -8 56 -10 17 -5 40 -9 170 -29 90 -14 142 -21 220 -31 19 -2 53 -6 75
-9 74 -9 179 -19 355 -33 210 -16 849 -9 1060 12 19 2 67 6 105 9 66 6 99 10
185 21 19 3 55 7 80 10 25 3 74 11 110 16 36 6 79 13 95 15 30 5 162 30 201
38 12 2 39 7 60 10 22 4 57 11 79 17 22 6 51 13 65 16 14 2 52 11 85 20 33 8
67 16 75 18 149 30 717 210 835 264 11 6 86 37 167 70 283 116 599 274 875
437 270 160 626 405 832 574 112 92 186 154 191 159 3 4 21 19 40 35 177 144
572 543 746 754 10 13 28 33 38 45 119 137 340 432 472 632 79 119 214 336
227 365 4 8 17 31 28 50 112 184 258 484 425 875 87 205 259 737 299 925 2 8
11 47 20 85 19 80 16 68 44 200 11 55 23 116 26 135 3 19 8 42 10 50 4 15 7
32 20 120 8 56 14 92 19 128 3 15 7 50 10 77 3 28 8 70 12 95 11 88 13 106 19
185 4 44 9 96 10 115 16 164 19 1215 19 7650 0 6555 -3 7578 -18 7670 -3 14
-8 66 -11 115 -3 50 -8 101 -10 115 -1 14 -6 54 -9 90 -4 36 -9 76 -11 90 -2
14 -7 45 -10 70 -3 25 -17 110 -31 190 -36 209 -31 185 -64 330 -12 52 -23
104 -26 115 -9 43 -10 48 -58 230 -2 6 -6 24 -10 40 -54 212 -191 602 -313
890 -58 136 -238 507 -296 610 -101 180 -137 241 -205 350 -368 590 -843 1151
-1347 1589 -49 43 -101 88 -115 100 -39 35 -269 216 -344 271 -37 28 -80 59
-94 71 -107 84 -554 365 -742 466 -162 87 -530 268 -545 268 -2 0 -32 13 -67
29 -226 103 -841 312 -1018 347 -14 3 -43 10 -65 16 -22 5 -51 12 -64 15 -14
2 -28 6 -31 8 -4 2 -22 7 -41 10 -19 3 -61 12 -94 20 -33 7 -80 16 -105 20
-24 4 -47 8 -50 10 -3 2 -23 6 -45 9 -38 6 -125 21 -170 30 -11 2 -63 9 -115
16 -52 7 -103 14 -112 15 -9 2 -48 7 -85 10 -37 4 -79 8 -92 10 -13 2 -67 7
-120 10 -53 4 -109 9 -126 12 -32 5 -801 13 -807 8z m647 -1729 c77 -4 149 -9
160 -11 11 -2 54 -7 95 -10 41 -3 89 -8 105 -10 17 -3 80 -11 140 -20 61 -8
120 -17 131 -19 12 -2 39 -7 60 -10 52 -8 205 -41 334 -72 1187 -284 2313
-1011 3067 -1982 37 -48 71 -91 76 -97 135 -167 388 -578 526 -852 162 -324
253 -563 391 -1018 27 -90 92 -386 115 -520 2 -16 7 -41 10 -55 3 -14 7 -43
10 -65 6 -50 16 -122 21 -155 2 -14 6 -56 10 -95 3 -38 8 -81 10 -95 2 -14 7
-86 11 -160 10 -186 10 -14406 0 -14555 -5 -66 -10 -136 -12 -155 -2 -19 -6
-68 -10 -108 -3 -41 -8 -83 -11 -95 -2 -12 -6 -42 -9 -67 -3 -25 -8 -56 -10
-70 -2 -14 -9 -54 -14 -90 -6 -36 -13 -76 -16 -90 -29 -150 -39 -197 -57 -270
-11 -47 -22 -96 -25 -109 -2 -14 -6 -28 -9 -33 -3 -4 -7 -18 -9 -29 -14 -70
-112 -374 -169 -524 -126 -329 -292 -665 -464 -945 -91 -148 -331 -494 -361
-520 -4 -3 -33 -39 -66 -80 -32 -41 -64 -80 -70 -86 -5 -6 -25 -29 -44 -50
-19 -21 -52 -59 -74 -84 -70 -79 -277 -288 -354 -358 -42 -37 -83 -74 -92 -83
-126 -122 -468 -380 -701 -529 -253 -161 -735 -412 -855 -446 -5 -1 -53 -21
-105 -42 -351 -147 -862 -279 -1300 -336 -105 -14 -151 -19 -265 -31 -223 -23
-761 -23 -955 0 -19 2 -62 7 -95 10 -78 7 -194 22 -250 31 -16 3 -41 7 -55 9
-324 52 -545 105 -856 206 -290 93 -593 222 -879 372 -114 61 -353 198 -380
220 -5 4 -50 34 -100 67 -49 33 -101 67 -115 77 -32 23 -172 125 -185 135
-286 228 -341 276 -569 503 -126 126 -172 175 -298 320 -48 55 -215 268 -263
335 -22 30 -43 56 -47 58 -5 2 -8 8 -8 13 0 5 -23 40 -50 78 -28 38 -50 72
-50 76 0 4 -13 24 -29 44 -15 20 -30 41 -32 46 -4 11 -109 189 -144 245 -26
41 -185 362 -234 470 -57 127 -158 393 -201 533 -23 72 -46 143 -51 157 -5 14
-11 34 -13 45 -3 11 -18 74 -35 140 -29 110 -84 368 -95 440 -2 17 -8 50 -12
75 -4 25 -8 52 -9 60 -1 8 -5 38 -8 65 -7 52 -11 87 -22 190 -3 33 -8 77 -10
99 -15 148 -18 1097 -18 7381 0 6248 3 7291 18 7386 2 13 6 58 10 99 7 87 14
153 20 195 3 17 7 48 10 70 4 22 13 81 21 130 8 50 17 104 20 120 3 17 7 37 9
45 2 8 6 26 9 40 3 14 8 39 11 55 79 398 253 887 467 1315 140 280 321 578
480 790 34 45 173 225 189 245 363 438 776 812 1229 1112 282 187 595 358 865
473 55 23 114 48 131 56 94 41 521 188 578 198 6 1 36 10 66 19 30 9 66 18 80
21 14 2 72 16 130 30 58 13 119 27 135 30 100 19 261 47 330 56 44 6 94 13
110 15 17 2 64 7 105 11 41 3 86 8 100 10 14 2 90 7 170 10 80 4 146 7 147 8
5 4 339 -2 458 -8z"/>
<path d="M24165 35440 c-113 -17 -133 -22 -231 -55 -199 -66 -348 -159 -499
-309 -289 -290 -423 -665 -381 -1066 20 -190 89 -376 237 -637 29 -51 221
-435 249 -498 12 -27 35 -77 50 -110 15 -33 53 -121 85 -195 31 -74 60 -144
65 -155 73 -156 282 -768 364 -1065 22 -81 77 -293 81 -310 2 -8 15 -64 29
-125 72 -304 148 -732 181 -1015 2 -19 9 -73 14 -120 6 -47 13 -114 16 -150 3
-36 8 -83 10 -105 4 -39 14 -161 20 -260 16 -246 19 -1344 19 -7765 0 -6419
-3 -7540 -19 -7760 -2 -25 -6 -85 -10 -135 -6 -88 -11 -140 -20 -220 -2 -22
-7 -71 -10 -108 -4 -37 -8 -77 -10 -87 -2 -10 -7 -50 -10 -87 -4 -37 -8 -75
-10 -83 -2 -8 -7 -35 -10 -60 -3 -25 -10 -70 -15 -100 -5 -30 -12 -73 -15 -95
-2 -22 -7 -50 -9 -61 -2 -12 -7 -37 -10 -55 -3 -19 -8 -44 -10 -55 -2 -12 -7
-39 -10 -60 -5 -32 -47 -241 -61 -304 -16 -72 -59 -254 -80 -335 -14 -55 -27
-108 -30 -117 -42 -177 -207 -697 -292 -918 -33 -88 -112 -288 -128 -325 -7
-16 -23 -55 -35 -85 -12 -30 -33 -77 -45 -105 -13 -27 -44 -97 -70 -155 -49
-109 -229 -475 -282 -570 -17 -30 -45 -82 -63 -115 -18 -33 -72 -127 -119
-210 -102 -175 -130 -233 -165 -335 -133 -391 -76 -805 159 -1150 160 -235
392 -411 650 -493 108 -34 133 -40 220 -54 67 -11 4934 -10 5100 0 72 5 144
10 160 12 17 2 59 7 95 10 72 6 96 9 220 26 47 6 101 13 120 15 92 12 341 57
460 84 192 43 217 49 315 75 257 67 642 194 810 265 11 5 65 28 120 51 148 62
173 73 380 174 155 76 330 168 437 230 124 72 210 126 353 221 217 145 195
129 372 262 345 258 627 514 974 884 47 49 49 52 148 168 35 41 67 77 70 80 3
3 19 23 36 45 16 22 38 49 48 60 49 53 286 379 389 535 435 661 745 1356 948
2125 35 134 96 404 105 465 3 25 8 52 10 60 4 14 8 39 20 113 3 17 7 43 10 57
2 14 7 45 10 70 4 25 8 56 10 70 2 14 7 52 10 85 3 33 8 67 10 75 2 8 7 53 10
98 4 46 8 91 10 100 1 10 7 76 11 147 11 166 12 7997 1 8210 -5 88 -10 185
-12 215 -11 183 -17 268 -20 290 -2 14 -6 68 -10 120 -4 52 -8 109 -10 125 -2
17 -6 59 -10 95 -3 36 -8 79 -10 95 -2 17 -11 93 -20 170 -8 77 -18 151 -20
165 -3 14 -7 48 -11 75 -3 28 -7 61 -10 75 -2 14 -9 54 -14 90 -11 76 -59 366
-65 395 -8 42 -25 131 -30 165 -3 19 -8 42 -10 50 -2 8 -6 26 -9 40 -23 123
-115 540 -121 550 -2 3 -6 17 -8 31 -7 37 -36 151 -69 274 -16 61 -31 117 -33
126 -2 8 -18 65 -35 125 -18 60 -36 123 -40 139 -15 58 -102 331 -167 525
-157 469 -360 975 -571 1430 -79 170 -344 702 -361 725 -5 6 -30 51 -56 100
-74 138 -90 166 -203 360 -171 292 -214 361 -425 680 -212 321 -243 365 -486
690 -115 154 -260 341 -296 382 -5 6 -23 29 -40 50 -36 45 -237 286 -245 293
-3 3 -32 37 -65 75 -33 39 -62 72 -65 75 -3 3 -25 28 -49 55 -324 367 -810
854 -1151 1151 -24 21 -54 48 -65 59 -18 18 -186 164 -240 208 -74 61 -234
193 -255 211 -14 12 -63 50 -110 86 -47 36 -87 68 -90 71 -15 17 -403 305
-500 371 -14 10 -61 43 -105 73 -193 135 -488 328 -705 460 -80 48 -157 96
-172 106 -15 11 -29 19 -32 19 -2 0 -40 21 -83 46 -310 185 -862 469 -1238
639 -639 289 -1258 519 -1910 709 -302 88 -824 219 -965 242 -58 10 -301 12
-355 4z"/>
</g>
</svg>
